# 3ds Max Wavefront OBJ Exporter v0.97b - (c)2007 guruware
# File Created: 17.03.2019 15:41:18

#
# object Box019
#

v  -1.3779 4.3307 1.1811
v  -1.3779 4.3307 -0.0787
v  0.6165 4.3307 -0.0787
v  0.6165 4.3307 1.1811
v  -1.3779 5.0984 1.1811
v  0.6165 5.0984 1.1811
v  0.6165 5.0984 -0.0787
v  -1.3779 5.0984 -0.0787
# 8 vertices

vn 0.0000 -1.0000 -0.0000
vn 0.0000 1.0000 -0.0000
vn 0.0000 0.0000 1.0000
vn 1.0000 0.0000 -0.0000
vn 0.0000 0.0000 -1.0000
vn -1.0000 0.0000 -0.0000
# 6 vertex normals

vt 50.6602 0.0000 0.0000
vt 50.6602 32.0000 0.0000
vt 0.0000 32.0000 0.0000
vt 0.0000 0.0000 0.0000
vt 50.6602 19.5000 0.0000
vt 0.0000 19.5000 0.0000
vt 32.0000 0.0000 0.0000
vt 32.0000 19.5000 0.0000
# 8 texture coords

o Box019
g Box019
s 2
f 1/1/1 2/2/1 3/3/1 
f 3/3/1 4/4/1 1/1/1 
s 4
f 5/4/2 6/1/2 7/2/2 
f 7/2/2 8/3/2 5/4/2 
s 8
f 1/4/3 4/1/3 6/5/3 
f 6/5/3 5/6/3 1/4/3 
s 16
f 4/4/4 3/7/4 7/8/4 
f 7/8/4 6/6/4 4/4/4 
s 32
f 3/4/5 2/1/5 8/5/5 
f 8/5/5 7/6/5 3/4/5 
s 64
f 2/4/6 1/7/6 5/8/6 
f 5/8/6 8/6/6 2/4/6 
# 12 faces

#
# object Box020
#

v  0.6165 4.3307 1.1811
v  0.6165 4.3307 0.3937
v  1.3779 4.3307 0.3937
v  1.3779 4.3307 1.1811
v  0.6165 5.0984 1.1811
v  1.3779 5.0984 1.1811
v  1.3779 5.0984 0.3937
v  0.6165 5.0984 0.3937
# 8 vertices

vn 0.0000 -1.0000 -0.0000
vn 0.0000 1.0000 -0.0000
vn 0.0000 0.0000 1.0000
vn 1.0000 0.0000 -0.0000
vn 0.0000 0.0000 -1.0000
vn -1.0000 0.0000 -0.0000
# 6 vertex normals

vt 19.3398 0.0000 0.0000
vt 19.3398 20.0000 0.0000
vt 0.0000 20.0000 0.0000
vt 0.0000 0.0000 0.0000
vt 19.3398 19.5000 0.0000
vt 0.0000 19.5000 0.0000
vt 20.0000 0.0000 0.0000
vt 20.0000 19.5000 0.0000
# 8 texture coords

o Box020
g Box020
s 2
f 9/9/7 10/10/7 11/11/7 
f 11/11/7 12/12/7 9/9/7 
s 4
f 13/12/8 14/9/8 15/10/8 
f 15/10/8 16/11/8 13/12/8 
s 8
f 9/12/9 12/9/9 14/13/9 
f 14/13/9 13/14/9 9/12/9 
s 16
f 12/12/10 11/15/10 15/16/10 
f 15/16/10 14/14/10 12/12/10 
s 32
f 11/12/11 10/9/11 16/13/11 
f 16/13/11 15/14/11 11/12/11 
s 64
f 10/12/12 9/15/12 13/16/12 
f 13/16/12 16/14/12 10/12/12 
# 12 faces

#
# object Box017
#

v  -3.1496 0.0000 1.2795
v  -3.1496 0.0000 -1.2795
v  3.1496 0.0000 -1.2795
v  3.1496 0.0000 1.2795
v  -3.1496 4.3307 1.2795
v  3.1496 4.3307 1.2795
v  3.1496 4.3307 -0.9666
v  -3.1496 4.3307 -0.9666
v  3.1496 3.6614 1.2795
v  -3.1496 3.6614 1.2795
v  3.1496 3.6614 -1.2795
v  -3.1496 3.6614 -1.2795
# 12 vertices

vn 0.0000 -1.0000 -0.0000
vn 0.0000 1.0000 -0.0000
vn 0.0000 0.0000 1.0000
vn 1.0000 0.0000 -0.0000
vn 0.0000 0.0000 -1.0000
vn -1.0000 0.0000 -0.0000
vn 0.0000 0.4235 -0.9059
# 7 vertex normals

vt 1.0000 0.0000 0.0000
vt 1.0000 65.0000 0.0000
vt -159.0000 65.0000 0.0000
vt -159.0000 0.0000 0.0000
vt 0.0000 0.0000 0.0000
vt 160.0000 0.0000 0.0000
vt 160.0000 65.0000 0.0000
vt 0.0000 65.0000 0.0000
vt 160.0000 93.0000 0.0000
vt 0.0000 93.0000 0.0000
vt 65.0000 0.0000 0.0000
vt 65.0000 93.0000 0.0000
# 12 texture coords

o Box017
g Box017
s 2
f 17/17/13 18/18/13 19/19/13 
f 19/19/13 20/20/13 17/17/13 
s 4
f 21/21/14 22/22/14 23/23/14 
f 23/23/14 24/24/14 21/21/14 
s 8
f 17/21/15 20/22/15 25/25/15 
f 25/25/15 26/26/15 17/21/15 
s 16
f 20/21/16 19/27/16 27/28/16 
f 27/28/16 25/26/16 20/21/16 
s 32
f 19/21/17 18/22/17 28/25/17 
f 28/25/17 27/26/17 19/21/17 
s 64
f 18/21/18 17/27/18 26/28/18 
f 26/28/18 28/26/18 18/21/18 
s off
f 26/21/15 25/22/15 22/22/15 
f 22/22/15 21/21/15 26/21/15 
f 25/22/16 27/23/16 23/23/16 
f 23/23/16 22/22/16 25/22/16 
f 27/23/19 28/24/19 24/24/19 
f 24/24/19 23/23/19 27/23/19 
f 28/24/18 26/21/18 21/21/18 
f 21/21/18 24/24/18 28/24/18 
# 20 faces

#
# object Box018
#

v  -3.0807 0.6693 -1.2795
v  -3.0807 0.6693 -1.5453
v  3.0807 0.6693 -1.5453
v  3.0807 0.6693 -1.2795
v  -3.0807 3.6024 -1.2795
v  3.0807 3.6024 -1.2795
v  3.0807 3.6024 -1.5453
v  -3.0807 3.6024 -1.5453
# 8 vertices

vn 0.0000 -1.0000 -0.0000
vn 0.0000 1.0000 -0.0000
vn 0.0000 0.0000 1.0000
vn 1.0000 0.0000 -0.0000
vn 0.0000 0.0000 -1.0000
vn -1.0000 0.0000 -0.0000
# 6 vertex normals

vt 1.0000 0.0000 0.0000
vt 1.0000 6.7500 0.0000
vt -155.5000 6.7500 0.0000
vt -155.5000 0.0000 0.0000
vt 0.0000 0.0000 0.0000
vt 156.5000 0.0000 0.0000
vt 156.5000 6.7500 0.0000
vt 0.0000 6.7500 0.0000
vt 156.5000 74.5000 0.0000
vt 0.0000 74.5000 0.0000
vt 6.7500 0.0000 0.0000
vt 6.7500 74.5000 0.0000
# 12 texture coords

o Box018
g Box018
s 2
f 29/29/20 30/30/20 31/31/20 
f 31/31/20 32/32/20 29/29/20 
s 4
f 33/33/21 34/34/21 35/35/21 
f 35/35/21 36/36/21 33/33/21 
s 8
f 29/33/22 32/34/22 34/37/22 
f 34/37/22 33/38/22 29/33/22 
s 16
f 32/33/23 31/39/23 35/40/23 
f 35/40/23 34/38/23 32/33/23 
s 32
f 31/33/24 30/34/24 36/37/24 
f 36/37/24 35/38/24 31/33/24 
s 64
f 30/33/25 29/39/25 33/40/25 
f 33/40/25 36/38/25 30/33/25 
# 12 faces